# xmcd CD database file
#
# Track frame offsets:
#	150
#	14602
#	34217
#	49704
#	72892
#	87648
#	108293
#	121643
#	136019
#	162695
#	174341
#	192885
#	212037
#
# Disc length: 3111 seconds
#
# Revision: 0
# Processed by: cddbd v1.5.1PL0 Copyright (c) Steve Scherf et al.
# Submitted via: CDex 1.51
#
DISCID=b00c250d
DTITLE=Michalek | Strone - Monk Alters Chi
DYEAR=2005
DGENRE=Jazz
TTITLE0=Brasiliero Habenero
TTITLE1=Swing Thing
TTITLE2=Freedom Fries
TTITLE3=Lost in an Embrace
TTITLE4=Hey is for Horses
TTITLE5=MoQuan Moods
TTITLE6=Pic Wic
TTITLE7=Almost Haunting
TTITLE8=My Funny Valentine
TTITLE9=Minor Swing
TTITLE10=Sid the Sneaker
TTITLE11=Pentahouse
TTITLE12=Monk Alters Chi
EXTD=YEAR: 2005
EXTT0=
EXTT1=
EXTT2=
EXTT3=
EXTT4=
EXTT5=
EXTT6=
EXTT7=
EXTT8=
EXTT9=
EXTT10=
EXTT11=
EXTT12=
PLAYORDER=
